<svg xmlns="http://www.w3.org/2000/svg" viewBox="0 0 481.67 84.49"><defs><style>.cls-1{fill:#3d6890}.cls-2{fill:#b91f39}.cls-3{fill:#3d6991}.cls-4{fill:#b91f3a}</style></defs><title>1Asset 1</title><g id="Layer_2" data-name="Layer 2"><g id="Layer_1-2" data-name="Layer 1"><path class="cls-1" d="M90.45 0h15.72v84.45H90.45zM151.19 0c-22.64 0-41 7.94-41 42.72 0 36.17 18.35 41.74 41 41.74s41-6.61 41-41.74c0-36.17-18.36-42.72-41-42.72zm0 68c-14.07 0-25.48-3.43-25.48-25.73 0-21.45 11.41-25.74 25.48-25.74s25.49 3.43 25.49 25.74c0 21.62-11.41 25.73-25.49 25.73z"/><path class="cls-2" d="M204.66 0h31.07l23.58 67.96h2.76L284.79.01h30.91v84.45h-14.5v-65h-4.46l-21.5 65h-27.27l-22.12-65h-4.94v65l-16.25-.01V0zM389.61.56v15.93h-46.62v18.17h37.17v15.83h-37.17v17.47h46.62v16.5h-63.93V.56h63.93z"/><path class="cls-3" d="M42.18.67H0v83.79h41.7s36 2.71 36-43.7C77.7-.93 42.18.67 42.18.67zm3 67.29H16.85V16.49h28s16.35 0 16.41 25.74C61.35 67.1 45.21 68 45.21 68z"/><path class="cls-4" d="M446.14.67H404v83.79h41.7s36 2.71 36-43.7C481.67-.93 446.14.67 446.14.67zm3 67.29h-27.56V16.49h27.27s16.35 0 16.41 25.74C465.31 67.1 449.17 68 449.17 68z"/></g></g></svg>